<?xml version="1.0" encoding="UTF-8"?><!DOCTYPE svg PUBLIC "-//W3C//DTD SVG 1.0//EN" "http://www.w3.org/TR/2001/REC-SVG-20010904/DTD/svg10.dtd"><svg xmlns="http://www.w3.org/2000/svg" xmlns:xlink="http://www.w3.org/1999/xlink" height="110px" version="1.0" viewBox="0 0 110 110" width="110px" xml:space="preserve"><g id="Multicolor"><circle cx="55" cy="55" r="55" fill="#25B7D3"/><path d="M55 27c15.439 0 28 12.561 28 28S70.439 83 55 83 27 70.439 27 55s12.561-28 28-28m0-4c-17.673 0-32 14.327-32 32 0 17.673 14.327 32 32 32s32-14.327 32-32c0-17.673-14.327-32-32-32z" fill="#FBEC9A"/><path d="M55 83c-15.439 0-28-12.561-28-28s12.561-28 28-28 28 12.561 28 28-12.561 28-28 28z" fill="#FACB1B"/><path d="M55 27c-15.439 0-28 12.561-28 28 0 7.946 3.333 15.124 8.667 20.225l39.558-39.558C70.124 30.332 62.946 27 55 27z" fill="#FBE158"/><path d="M27 55c0-15.439 12.561-28 28-28 7.925 0 15.086 3.315 20.185 8.625l2.838-2.838C72.203 26.757 64.042 23 55 23c-17.673 0-32 14.327-32 32 0 9.042 3.757 17.203 9.787 23.022l2.838-2.838C30.315 70.086 27 62.925 27 55z" fill="#FCF6C2"/><path d="M69.377 66.761c-2.592 3.36-5.809 5.617-10.753 5.617-7.105 0-12.097-4.561-13.921-11.377h-2.592a2.049 2.049 0 0 1-2.064-2.064c0-1.104.912-2.064 2.064-2.064h1.872c-.048-.576-.048-1.2-.048-1.824 0-.72 0-1.488.096-2.208h-1.92c-1.152 0-2.064-.912-2.064-2.017 0-1.152.912-2.064 2.064-2.064h2.688c1.872-6.48 6.817-11.137 13.633-11.137 5.088 0 8.161 2.016 10.657 4.896.384.384.768 1.104.768 1.968 0 1.536-1.296 2.784-2.832 2.784-1.008 0-1.68-.48-2.064-.96-1.824-2.208-3.696-3.408-6.673-3.408-3.456 0-6.048 2.256-7.393 5.856h8.545c1.104 0 2.016.912 2.016 2.064a2.029 2.029 0 0 1-2.016 2.017h-9.457c-.096.672-.096 1.392-.096 2.112 0 .672 0 1.296.048 1.92h9.505c1.104 0 2.016.96 2.016 2.064 0 1.152-.912 2.064-2.016 2.064H50.8c1.344 3.84 4.08 6.096 7.873 6.096 2.88 0 4.752-1.392 6.576-3.648.48-.576 1.152-.96 2.064-.96 1.44 0 2.64 1.152 2.64 2.592 0 .721-.288 1.345-.576 1.681z" fill="#8E6134"/></g><metadata><rdf:RDF xmlns:rdf="http://www.w3.org/1999/02/22-rdf-syntax-ns#" xmlns:rdfs="http://www.w3.org/2000/01/rdf-schema#" xmlns:dc="http://purl.org/dc/elements/1.1/"><rdf:Description about="https://iconscout.com/legal#licenses" dc:title="coin,euro" dc:description="coin,euro" dc:publisher="Iconscout" dc:date="2017-09-19" dc:format="image/svg+xml" dc:language="en"><dc:creator><rdf:Bag><rdf:li>Vincent Le Moign</rdf:li></rdf:Bag></dc:creator></rdf:Description></rdf:RDF></metadata></svg>